<svg xmlns="http://www.w3.org/2000/svg" xmlns:xlink="http://www.w3.org/1999/xlink" width="466" height="128" version="1.1" viewBox="0 0 466 128"><g id="Page-1" fill="none" fill-rule="evenodd" stroke="none" stroke-width="1"><g id="LOGO-(2)" transform="translate(-23.000000, -192.000000)"><g id="Group-2" transform="translate(23.000000, 192.000000)"><path id="SPES" fill="#212121" fill-rule="nonzero" d="M84,128 C89.3333333,127.866667 94.3333333,126.766667 99,124.7 C103.666667,122.633333 107.733333,119.866667 111.2,116.4 C114.666667,112.933333 117.4,108.866667 119.4,104.2 C121.4,99.5333333 122.4,94.6 122.4,89.4 C122.4,84.0666667 121.333333,79.0333333 119.2,74.3 C117.066667,69.5666667 114.2,65.4333333 110.6,61.9 C107,58.3666667 102.9,55.6 98.3,53.6 C93.7,51.6 88.9333333,50.6 84,50.6 L70.4,50.6 C67.2,50.6 64.5,49.5 62.3,47.3 C60.1,45.1 58.9333333,42.4666667 58.8,39.4 C58.9333333,35.9333333 60.1,33.0333333 62.3,30.7 C64.5,28.3666667 67.2,27.2 70.4,27.2 L106,27.2 C109.866667,27.2 113.066667,25.9333333 115.6,23.4 C118.133333,20.8666667 119.4,17.6666667 119.4,13.8 C119.133333,9.93333333 117.733333,6.7 115.2,4.1 C112.666667,1.5 109.6,0.2 106,0.2 L70.4,0.2 C65.0666667,0.2 60.0666667,1.3 55.4,3.5 C50.7333333,5.7 46.6333333,8.6 43.1,12.2 C39.5666667,15.8 36.8,19.9333333 34.8,24.6 C32.8,29.2666667 31.8,34.0666667 31.8,39 C31.8,44.4666667 32.8666667,49.5333333 35,54.2 C37.1333333,58.8666667 39.9666667,62.9 43.5,66.3 C47.0333333,69.7 51.1333333,72.4 55.8,74.4 C60.4666667,76.4 65.3333333,77.4666667 70.4,77.6 L84.2,77.6 C87.2666667,77.7333333 89.9666667,78.9 92.3,81.1 C94.6333333,83.3 95.8,86.0666667 95.8,89.4 C95.8,92.6 94.6,95.3333333 92.2,97.6 C89.8,99.8666667 87.0666667,101 84,101 L48.4,101 C44.5333333,101 41.3,102.333333 38.7,105 C36.1,107.666667 34.8,110.8 34.8,114.4 C34.8,118.266667 36.0666667,121.5 38.6,124.1 C41.1333333,126.7 44.4,128 48.4,128 L84,128 Z M153.5,128 C157.233333,128 160.433333,126.7 163.1,124.1 C165.766667,121.5 167.1,118.266667 167.1,114.4 L167.1,114.4 L167.1,84.8 C170.033333,87.0666667 173.066667,88.7 176.2,89.7 C179.333333,90.7 182.433333,91.2 185.5,91.2 C191.9,91.2 197.866667,90 203.4,87.6 C208.933333,85.2 213.7,81.9333333 217.7,77.8 C221.7,73.6666667 224.866667,68.8333333 227.2,63.3 C229.533333,57.7666667 230.7,51.8666667 230.7,45.6 C230.7,39.3333333 229.466667,33.4333333 227,27.9 C224.533333,22.3666667 221.2,17.5666667 217,13.5 C212.8,9.43333333 207.966667,6.2 202.5,3.8 C197.033333,1.4 191.366667,0.2 185.5,0.2 C179.233333,0.2 173.4,1.46666667 168,4 C162.6,6.53333333 157.833333,9.9 153.7,14.1 C149.566667,18.3 146.3,23.1333333 143.9,28.6 C141.5,34.0666667 140.233333,39.7333333 140.1,45.6 L140.1,45.6 L140.1,114.4 C140.1,118.266667 141.4,121.5 144,124.1 C146.6,126.7 149.766667,128 153.5,128 Z M185.5,64.2 C182.966667,64.2 180.566667,63.7333333 178.3,62.8 C176.033333,61.8666667 174.066667,60.5666667 172.4,58.9 C170.733333,57.2333333 169.433333,55.2666667 168.5,53 C167.566667,50.7333333 167.1,48.2666667 167.1,45.6 C167.1,43.0666667 167.566667,40.6666667 168.5,38.4 C169.433333,36.1333333 170.733333,34.1666667 172.4,32.5 C174.066667,30.8333333 176.033333,29.5333333 178.3,28.6 C180.566667,27.6666667 182.966667,27.2 185.5,27.2 C188.033333,27.2 190.4,27.6666667 192.6,28.6 C194.8,29.5333333 196.733333,30.8333333 198.4,32.5 C200.066667,34.1666667 201.4,36.1333333 202.4,38.4 C203.4,40.6666667 203.9,43.0666667 203.9,45.6 C203.9,50.9333333 202.1,55.3666667 198.5,58.9 C194.9,62.4333333 190.566667,64.2 185.5,64.2 Z M312.8,128 C316.533333,128 319.7,126.7 322.3,124.1 C324.9,121.5 326.2,118.266667 326.2,114.4 C326.2,110.8 324.9,107.666667 322.3,105 C319.7,102.333333 316.533333,101 312.8,101 L312.8,101 L272.8,101 L272.8,73.6 L299.4,73.6 C303,73.6 306.133333,72.3 308.8,69.7 C311.466667,67.1 312.8,63.9333333 312.8,60.2 C312.8,56.4666667 311.466667,53.2666667 308.8,50.6 C306.133333,47.9333333 303,46.6 299.4,46.6 L299.4,46.6 L272.8,46.6 L272.8,27.2 L312.8,27.2 C316.533333,27.2 319.7,25.9333333 322.3,23.4 C324.9,20.8666667 326.2,17.6666667 326.2,13.8 C326.2,10.0666667 324.9,6.86666667 322.3,4.2 C319.7,1.53333333 316.533333,0.2 312.8,0.2 L312.8,0.2 L259.6,0.2 C255.733333,0.2 252.533333,1.6 250,4.4 C247.466667,7.2 246.2,10.3333333 246.2,13.8 L246.2,13.8 L246.2,114.4 C246.2,118.266667 247.566667,121.5 250.3,124.1 C253.033333,126.7 256.133333,128 259.6,128 L259.6,128 L312.8,128 Z M396.5,128 C401.833333,127.866667 406.833333,126.766667 411.5,124.7 C416.166667,122.633333 420.233333,119.866667 423.7,116.4 C427.166667,112.933333 429.9,108.866667 431.9,104.2 C433.9,99.5333333 434.9,94.6 434.9,89.4 C434.9,84.0666667 433.833333,79.0333333 431.7,74.3 C429.566667,69.5666667 426.7,65.4333333 423.1,61.9 C419.5,58.3666667 415.4,55.6 410.8,53.6 C406.2,51.6 401.433333,50.6 396.5,50.6 L396.5,50.6 L382.9,50.6 C379.7,50.6 377,49.5 374.8,47.3 C372.6,45.1 371.433333,42.4666667 371.3,39.4 C371.433333,35.9333333 372.6,33.0333333 374.8,30.7 C377,28.3666667 379.7,27.2 382.9,27.2 L382.9,27.2 L418.5,27.2 C422.366667,27.2 425.566667,25.9333333 428.1,23.4 C430.633333,20.8666667 431.9,17.6666667 431.9,13.8 C431.633333,9.93333333 430.233333,6.7 427.7,4.1 C425.166667,1.5 422.1,0.2 418.5,0.2 L418.5,0.2 L382.9,0.2 C377.566667,0.2 372.566667,1.3 367.9,3.5 C363.233333,5.7 359.133333,8.6 355.6,12.2 C352.066667,15.8 349.3,19.9333333 347.3,24.6 C345.3,29.2666667 344.3,34.0666667 344.3,39 C344.3,44.4666667 345.366667,49.5333333 347.5,54.2 C349.633333,58.8666667 352.466667,62.9 356,66.3 C359.533333,69.7 363.633333,72.4 368.3,74.4 C372.966667,76.4 377.833333,77.4666667 382.9,77.6 L382.9,77.6 L396.7,77.6 C399.766667,77.7333333 402.466667,78.9 404.8,81.1 C407.133333,83.3 408.3,86.0666667 408.3,89.4 C408.3,92.6 407.1,95.3333333 404.7,97.6 C402.3,99.8666667 399.566667,101 396.5,101 L396.5,101 L360.9,101 C357.033333,101 353.8,102.333333 351.2,105 C348.6,107.666667 347.3,110.8 347.3,114.4 C347.3,118.266667 348.566667,121.5 351.1,124.1 C353.633333,126.7 356.9,128 360.9,128 L360.9,128 L396.5,128 Z"/><circle id="Oval" cx="13.5" cy="114.5" r="13.5" fill="#212121"/><circle id="Oval" cx="452.5" cy="13.5" r="13.5" fill="#212121"/><g id="Group" transform="translate(177.000000, 37.000000)"><circle id="Oval" cx="2.5" cy="2.5" r="2.5" fill="#212121"/><circle id="Oval" cx="15.5" cy="2.5" r="2.5" fill="#212121"/><path id="Combined-Shape" stroke="#212121" stroke-width="3" d="M1.64702082,17.5 L16.3499728,17.5 C15.6550673,14.0766395 12.6284369,11.5 9,11.5 C5.37278368,11.5 2.33602782,14.0791584 1.64702082,17.5 Z" transform="translate(9.000000, 14.500000) rotate(-180.000000) translate(-9.000000, -14.500000)"/></g></g></g></g></svg>